<?xml version="1.0" encoding="utf-8"?>
<svg width="128px" height="128px" viewBox="0 0 128 128" version="1.1" xmlns="http://www.w3.org/2000/svg" xmlns:xlink="http://www.w3.org/1999/xlink">
<path d="M48.1,25c0,0,6.3,4.3,6.3,12.2C54.3,50.8,36,66,36,80c0,15.3,11.5,25.2,22.7,28.1
	c1.5,0.3,2.3-1.5,0.3-2c-4.4-1.2-9.5-7.1-9.5-16.5c0-8.7,8.2-11.8,11.5-16.1c3.5-4.3,2.6-9.7,0.7-11.4c-2-1.6-0.7-3.6,3-1.2
	c3.6,2.5,6.6,7.2,5.4,11.7c-1.3,5.8,0.5,9.1,3.5,9.4c3,0.3,6.3-1.2,5.9-3.9c-0.3-2.8-2-5.8-1-5.8c2.1,0,6.6,5.3,6.6,13.7
	c0,8.4-6.9,14.2-8.9,16.3c-1.3,1.3,0.3,3.1,2.1,2.1c0.8-0.3,2.6-1.5,3.8-2.3C87.6,98.2,96,90.5,96,75.8
	c0-15.3-5.8-22.1-11.5-27.6c-5.8-5.8-7.2-4.3-5.6-1.5c4.9,8.6,2,11.4-1.6,11.4c-4.3,0-4.4-9.5-6.1-17C67.5,24.8,52.8,22,50,21.9
	C47.2,21.9,44.8,23.5,48.1,25L48.1,25z" fill="#fff"/>
</svg>
