<?xml version="1.0" encoding="utf-8"?>
<svg width="128px" height="128px" viewBox="0 0 128 128" version="1.1" xmlns="http://www.w3.org/2000/svg" xmlns:xlink="http://www.w3.org/1999/xlink">
<g>
	<path d="M39.4,48.2c0.1-0.8-0.2-1.6-0.8-2.2l-6.3-7.5v-1.1h19.4l15,33l13.2-33h18.5v1.1L93,43.6
		c-0.5,0.4-0.7,0.9-0.6,1.5v37.7c-0.1,0.6,0.1,1.2,0.6,1.5l5.2,5.1v1.1H72.1v-1.1l5.4-5.3c0.5-0.5,0.5-0.7,0.5-1.5V52.2L63,90.5h-2
		L43.4,52.2v25.6c-0.1,1.1,0.2,2.2,1,2.9l7,8.5v1.1h-20v-1.1l7-8.5c0.8-0.8,1.1-1.9,0.9-2.9L39.4,48.2L39.4,48.2z" fill="#fff"/>
</g>
</svg>
