<?xml version="1.0" encoding="UTF-8" standalone="no"?>
<svg width="128px" height="128px" viewBox="0 0 128 128" version="1.1" xmlns="http://www.w3.org/2000/svg" xmlns:xlink="http://www.w3.org/1999/xlink">
    <g>
		<path d="M103.8,42.2c-2.7,1.2-5.6,2-8.7,2.4c3.1-1.9,5.5-4.8,6.6-8.4c-2.9,1.7-6.1,3-9.6,3.7c-2.8-2.9-6.7-4.8-11-4.8
		c-8.3,0-15.1,6.8-15.1,15.1c0,1.2,0.1,2.3,0.4,3.4C53.9,53,42.7,47,35.3,37.9c-1.3,2.2-2,4.8-2,7.6c0,5.2,2.7,9.9,6.7,12.6
		c-2.5-0.1-4.8-0.8-6.8-1.9c0,0.1,0,0.1,0,0.2c0,7.3,5.2,13.4,12.1,14.8c-1.3,0.3-2.6,0.5-4,0.5c-1,0-1.9-0.1-2.8-0.3
		c1.9,6,7.5,10.4,14.1,10.5c-5.2,4-11.7,6.5-18.7,6.5c-1.2,0-2.4-0.1-3.6-0.2c6.7,4.3,14.6,6.8,23.1,6.8c27.8,0,42.9-23,42.9-42.9
		c0-0.7,0-1.3,0-2C99.2,47.9,101.7,45.2,103.8,42.2" fill="#fff" />
    </g>
</svg>