<?xml version="1.0" encoding="utf-8"?>
<svg width="128px" height="128px" viewBox="0 0 128 128" version="1.1" xmlns="http://www.w3.org/2000/svg" xmlns:xlink="http://www.w3.org/1999/xlink">
<g fill="#fff" fill-rule="evenodd">
	<path d="M105,43.9c-1-3.6-3.8-6.4-7.4-7.4C91.1,34.8,65,34.8,65,34.8s-26.1,0-32.7,1.7c-3.5,1-6.4,3.9-7.4,7.4
		C23.2,50.4,23.2,64,23.2,64s0,13.6,1.7,20.1c1,3.6,3.8,6.4,7.4,7.4c6.6,1.8,32.7,1.8,32.7,1.8s26.1,0,32.7-1.7
		c3.6-1,6.4-3.8,7.4-7.4c1.7-6.5,1.7-20.1,1.7-20.1S106.8,50.4,105,43.9zM78.4,64L56.7 51.5 56.7 76.5z" />
</g>
</svg>
